<?xml version="1.0" standalone="no"?>
<!DOCTYPE svg PUBLIC "-//W3C//DTD SVG 20010904//EN"
 "http://www.w3.org/TR/2001/REC-SVG-20010904/DTD/svg10.dtd">
<svg version="1.0" xmlns="http://www.w3.org/2000/svg"
 width="500.000000pt" height="500.000000pt" viewBox="0 0 500.000000 500.000000"
 preserveAspectRatio="xMidYMid meet">

<g transform="translate(0.000000,500.000000) scale(0.100000,-0.100000)"
fill="#000000" stroke="none">
<path d="M275 3644 c-115 -25 -219 -51 -231 -59 -50 -32 -55 -135 -9 -181 l24
-24 431 0 430 0 0 -65 0 -65 -43 0 c-32 0 -49 -6 -65 -23 -20 -21 -23 -43 -40
-337 -12 -206 -15 -325 -9 -343 16 -47 51 -57 200 -57 120 0 137 2 160 20 14
11 29 29 32 40 6 19 17 20 368 20 l362 0 49 -88 c27 -48 78 -135 113 -194 92
-156 69 -148 448 -148 334 0 350 2 396 57 14 17 69 107 123 202 l99 171 362 0
363 0 6 -26 c11 -44 60 -56 212 -52 130 3 134 4 161 30 l27 27 -18 323 c-10
178 -22 331 -27 340 -13 25 -42 38 -83 38 l-36 0 0 65 0 65 429 0 430 0 26 23
c49 42 43 146 -9 181 -13 8 -110 33 -217 57 -302 66 -430 64 -594 -10 l-65
-30 0 33 c0 36 -15 56 -42 56 -20 0 -38 -28 -38 -59 0 -26 -11 -26 -59 -1 -22
11 -72 29 -112 40 -118 32 -212 27 -464 -25 -119 -25 -225 -49 -235 -55 -30
-16 -40 -43 -40 -105 0 -46 4 -60 25 -80 l24 -25 429 0 c475 0 442 5 442 -65
0 -55 -8 -65 -52 -65 -27 0 -46 -7 -62 -23 -20 -20 -24 -37 -30 -135 l-8 -112
-375 2 -376 3 -101 177 c-107 186 -131 219 -175 238 -19 7 -127 10 -347 8
-314 -3 -320 -3 -351 -26 -22 -15 -66 -83 -140 -212 l-108 -190 -375 3 -375 2
-2 60 c-7 172 -22 205 -93 205 l-40 0 0 65 0 65 428 0 c474 0 460 -2 482 66
16 48 6 95 -28 126 -23 22 -59 33 -227 69 -307 65 -413 63 -585 -11 l-70 -29
0 32 c0 37 -15 57 -42 57 -20 0 -38 -28 -38 -59 0 -27 -6 -26 -71 4 -155 70
-275 72 -574 9z m2365 -531 c174 -77 254 -288 176 -461 -96 -209 -370 -270
-541 -120 -152 134 -166 348 -33 493 108 118 256 151 398 88z"/>
<path d="M2407 3045 c-145 -54 -212 -227 -143 -369 97 -198 390 -191 477 11
25 60 25 163 0 220 -26 57 -92 118 -148 137 -56 19 -135 20 -186 1z"/>
<path d="M1510 2309 c-107 -99 -206 -190 -218 -203 -15 -15 -35 -61 -54 -122
-106 -356 -158 -546 -158 -579 0 -53 52 -105 106 -105 80 0 87 10 234 335 84
186 142 302 155 310 11 7 110 65 220 130 110 65 202 119 203 121 2 1 -34 68
-80 148 l-83 146 -65 0 -65 0 -195 -181z"/>
<path d="M3081 2349 c-44 -77 -81 -144 -81 -147 0 -4 91 -60 203 -126 111 -65
211 -124 222 -131 12 -7 70 -123 149 -296 71 -156 140 -296 154 -311 67 -73
192 -26 192 72 0 34 -170 632 -190 669 -4 8 -104 103 -221 212 l-214 198 -66
1 -67 0 -81 -141z"/>
</g>
</svg>
